<svg xmlns="http://www.w3.org/2000/svg" width="645" height="693" viewBox="0 0 645 693" version="1.1"><path d="M 310.837 1.042 C 239.064 8.515, 177.317 34.315, 124 79.108 C 103.664 96.193, 81.880 119.793, 66.156 141.774 C 23.069 202.007, 0.010 272.500, 0.006 344 C 0.002 403.543, 12.269 455.620, 38.240 506.315 C 53.911 536.904, 69.499 557.695, 98.407 586.563 C 133.328 621.436, 156.441 638.438, 194.828 657.491 C 272.060 695.823, 356.554 702.867, 438.500 677.805 C 490.422 661.926, 538.600 632.607, 578.548 592.578 C 601.113 569.968, 619.035 546.365, 635.393 517.715 C 643.831 502.936, 645.412 496.523, 644.693 480 C 644.120 466.843, 642.174 460.115, 636.449 451.489 C 631.636 444.238, 625.102 438.689, 616.500 434.549 C 603.516 428.299, 592.539 427.659, 579.498 432.393 C 565.268 437.558, 556.872 444.976, 547.059 461.055 C 527.063 493.817, 498.934 522.894, 469 541.742 C 455.027 550.541, 431.303 561.857, 416.500 566.786 C 403.317 571.175, 386.418 575.169, 372.500 577.185 C 358.762 579.176, 320.167 578.892, 306.508 576.701 C 270.628 570.944, 239.597 558.969, 211.164 539.906 C 199.507 532.091, 179.559 515.380, 179.655 513.510 C 179.748 511.696, 262.208 462, 265.123 462 C 266.614 462, 272.484 464.249, 278.167 466.999 C 292.287 473.829, 301.482 476.089, 317.785 476.736 C 343.156 477.743, 362.302 472.167, 385 457.161 C 395.278 450.366, 407.842 438.582, 413.179 430.730 C 419.670 421.182, 426 405.052, 426 398.060 C 426 395.065, 421.641 391, 418.430 391 C 416.906 391, 408.932 394.916, 399.771 400.162 C 375.823 413.877, 367.064 416.816, 353.754 415.602 C 345.396 414.840, 340.430 412.953, 331.667 407.212 C 320.185 399.690, 304.577 379.794, 296.028 361.783 C 288.378 345.665, 287.500 342.238, 287.500 328.500 C 287.500 317.596, 287.743 315.982, 290.160 310.825 C 294.474 301.623, 299.990 296.641, 321.608 282.421 C 345.685 266.585, 348.666 263.055, 344.602 255.198 C 342.351 250.845, 339.449 248.843, 333.285 247.393 C 313.782 242.803, 282.431 251.418, 257.796 268.136 C 234.833 283.719, 217.889 306.370, 210.396 331.500 C 208.037 339.414, 207.689 342.413, 207.513 356.344 C 207.400 365.267, 206.887 372.475, 206.339 372.844 C 205.234 373.588, 162.175 400.461, 139.407 414.617 C 131.107 419.777, 123.817 424, 123.208 424 C 121.820 424, 115.856 405.622, 113.134 392.960 C 107.994 369.048, 106.485 337.172, 109.441 314.970 C 120.116 234.795, 168.304 166.139, 237.500 132.518 C 271.715 115.893, 302.927 108.703, 340.500 108.791 C 394.372 108.917, 446.639 126.777, 483.042 157.500 C 491.091 164.292, 503 177.410, 503 179.483 C 503 181.556, 501.599 182.633, 484.125 194 C 475.247 199.775, 450.100 216.341, 428.242 230.812 C 406.384 245.284, 387.881 257.484, 387.125 257.922 C 386.080 258.528, 388.635 262.899, 397.758 276.110 C 411.868 296.544, 418.411 306.921, 432.041 330.474 L 442.092 347.842 453.796 340.320 C 460.233 336.184, 486.200 319.675, 511.500 303.635 C 536.800 287.595, 569.100 267.111, 583.278 258.115 C 611.161 240.422, 617.679 234.975, 624.288 223.842 C 630.049 214.138, 632.234 206.258, 632.759 193.292 C 633.162 183.355, 632.915 181.044, 630.580 172.905 C 624.607 152.081, 608.800 128.405, 583.002 101.642 C 564.862 82.823, 545.147 67.073, 521.526 52.533 C 477.734 25.575, 433.628 9.796, 381.500 2.441 C 368.442 0.598, 323.620 -0.289, 310.837 1.042 M 348.703 320.445 C 328.727 332.559, 326.955 333.863, 325.393 337.601 C 323.546 342.022, 323.957 343.309, 330.792 354.496 C 338.271 366.736, 340.488 369, 344.996 369 C 348.684 369, 349.793 368.423, 368.701 356.662 C 385.394 346.280, 385.689 344.330, 373.414 325.499 C 367.608 316.592, 364.910 314, 361.444 314 C 360.283 314, 354.549 316.900, 348.703 320.445" stroke="none" fill="#000000" fill-rule="evenodd"/></svg>